<svg width="24" height="24" viewBox="0 0 24 24" fill="none" xmlns="http://www.w3.org/2000/svg">
  <!-- Tree canopy (simplified leaves) -->
  <path d="M12 3C10.5 3 9.5 4 9 5C8.5 4.5 7.5 4 6.5 5C5.5 6 6 7.5 6.5 8.5C5.5 8.5 4.5 9 4.5 10.5C4.5 12 5.5 12.5 6.5 12.5C6 13.5 6 15 7.5 15.5C9 16 10 15 10.5 14C11 15 12 15.5 13.5 15.5C15 15.5 15 14 14.5 13C15.5 13 16.5 12.5 16.5 10.5C16.5 9 15.5 8.5 14.5 8.5C15 7.5 15.5 6 14.5 5C13.5 4 12.5 4.5 12 5C11.5 4 11 3 12 3Z" fill="#267CB9"/>

  <!-- Central trunk -->
  <path d="M11 12L11 18" stroke="#267CB9" stroke-width="1.5" stroke-linecap="round"/>
  <path d="M13 12L13 18" stroke="#267CB9" stroke-width="1.5" stroke-linecap="round"/>

  <!-- Circuit board roots -->
  <path d="M8 18L6 20M8 18L8 21M11 18L9 21M13 18L15 21M16 18L18 20M16 18L16 21" stroke="#267CB9" stroke-width="1" stroke-linecap="round"/>

  <!-- Circuit nodes -->
  <circle cx="6" cy="20" r="0.8" fill="#267CB9"/>
  <circle cx="8" cy="21" r="0.8" fill="#267CB9"/>
  <circle cx="9" cy="21" r="0.8" fill="#267CB9"/>
  <circle cx="15" cy="21" r="0.8" fill="#267CB9"/>
  <circle cx="16" cy="21" r="0.8" fill="#267CB9"/>
  <circle cx="18" cy="20" r="0.8" fill="#267CB9"/>
</svg>
